<?xml version="1.0" encoding="utf-8"?>
<svg viewBox="200 188.239 310.718 147.569" xmlns="http://www.w3.org/2000/svg">
  <path d="M 435.2 300.32 L 432.99 299.73 L 430.92 298.76 L 429.05 297.45 L 427.43 295.83 L 426.12 293.96 L 425.16 291.89 L 424.56 289.68 L 424.37 287.4 L 424.37 265.11 L 424.56 262.84 L 425.16 260.63 L 426.12 258.56 L 427.43 256.69 L 429.05 255.07 L 430.92 253.76 L 432.99 252.79 L 435.2 252.2 L 437.48 252 L 458.46 252 L 460.73 252.2 L 462.94 252.79 L 465.01 253.76 L 466.89 255.07 L 468.5 256.69 L 469.81 258.56 L 470.78 260.63 L 471.37 262.84 L 471.57 265.11 L 471.57 287.4 L 471.37 289.68 L 470.78 291.89 L 469.81 293.96 L 468.5 295.83 L 466.89 297.45 L 465.01 298.76 L 462.94 299.73 L 460.73 300.32 L 458.46 300.52 L 437.48 300.52 Z M 437.48 290.03 L 458.46 290.03 L 459.27 289.9 L 460 289.53 L 460.58 288.95 L 460.95 288.21 L 461.08 287.4 L 461.08 265.11 L 460.95 264.3 L 460.58 263.57 L 460 262.99 L 459.27 262.62 L 458.46 262.49 L 437.48 262.49 L 436.67 262.62 L 435.94 262.99 L 435.36 263.57 L 434.98 264.3 L 434.86 265.11 L 434.86 287.4 L 434.98 288.21 L 435.36 288.95 L 435.94 289.53 L 436.67 289.9 Z" style="stroke: rgb(7, 27, 159); fill: rgb(7, 27, 159);"/>
  <polyline points="467.55,226.24 459.37,248.07 429.61,248.07 429.61,245.44 457.55,245.44 465.1,225.32 467.55,226.24" style="stroke: rgb(7, 27, 159); stroke-linecap: round; stroke-linejoin: round; fill: rgb(7, 27, 159);"/>
  <path d="M 270.95 204.8 L 270.95 300.52 L 243.41 300.52 L 241.37 300.34 L 239.38 299.81 L 237.51 298.94 L 235.83 297.76 L 234.37 296.3 L 233.19 294.62 L 232.32 292.75 L 231.79 290.77 L 231.61 288.72 L 231.61 265.11 L 231.79 263.06 L 232.32 261.08 L 233.19 259.21 L 234.37 257.53 L 235.83 256.07 L 237.51 254.89 L 239.38 254.02 L 241.37 253.49 L 243.41 253.31 L 263.08 253.31 L 263.08 204.8 Z M 263.08 261.18 L 243.41 261.18 L 242.2 261.37 L 241.1 261.93 L 240.23 262.8 L 239.67 263.9 L 239.48 265.11 L 239.48 288.72 L 239.67 289.93 L 240.23 291.03 L 241.1 291.9 L 242.2 292.46 L 243.41 292.65 L 263.08 292.65 Z" style="stroke: rgb(7, 27, 159); stroke-linecap: square; stroke-linejoin: round; fill: rgb(7, 27, 159);"/>
  <path d="M 314.22 300.52 L 290.62 300.52 L 288.57 300.34 L 286.58 299.81 L 284.72 298.94 L 283.03 297.76 L 281.58 296.3 L 280.4 294.62 L 279.53 292.75 L 279 290.77 L 278.82 288.72 L 278.82 265.11 L 279 263.06 L 279.53 261.08 L 280.4 259.21 L 281.58 257.53 L 283.03 256.07 L 284.72 254.89 L 286.58 254.02 L 288.57 253.49 L 290.62 253.31 L 306.35 253.31 L 308.4 253.49 L 310.39 254.02 L 312.25 254.89 L 313.94 256.07 L 315.39 257.53 L 316.57 259.21 L 317.44 261.08 L 317.98 263.06 L 318.15 265.11 L 318.15 280.85 L 286.69 280.85 L 286.69 288.72 L 286.88 289.93 L 287.44 291.03 L 288.31 291.9 L 289.4 292.46 L 290.62 292.65 L 314.22 292.65 Z M 310.29 272.98 L 310.29 265.11 L 310.09 263.9 L 309.54 262.8 L 308.67 261.93 L 307.57 261.37 L 306.35 261.18 L 290.62 261.18 L 289.4 261.37 L 288.31 261.93 L 287.44 262.8 L 286.88 263.9 L 286.69 265.11 L 286.69 272.98 Z" style="stroke: rgb(7, 27, 159); stroke-linecap: square; stroke-linejoin: round; fill: rgb(7, 27, 159);"/>
  <polyline points="327.33,292.65 327.33,300.52 350.94,300.52 350.94,300.52 352.99,300.34 354.97,299.81 356.84,298.94 358.52,297.76 359.98,296.3 361.16,294.62 362.03,292.75 362.56,290.77 362.74,288.72 362.74,284.78 362.74,284.78 362.56,282.73 362.03,280.75 361.16,278.88 359.98,277.2 358.52,275.74 356.84,274.56 354.97,273.69 352.99,273.16 350.94,272.98 335.2,272.98 335.2,272.98 333.99,272.79 332.89,272.23 332.02,271.36 331.46,270.26 331.27,269.05 331.27,265.11 331.27,265.11 331.46,263.9 332.02,262.8 332.89,261.93 333.99,261.37 335.2,261.18 358.8,261.18 358.8,253.31 335.2,253.31 335.2,253.31 333.15,253.49 331.16,254.02 329.3,254.89 327.62,256.07 326.16,257.53 324.98,259.21 324.11,261.08 323.58,263.06 323.4,265.11 323.4,269.05 323.4,269.05 323.58,271.1 324.11,273.08 324.98,274.95 326.16,276.63 327.62,278.09 329.3,279.27 331.16,280.14 333.15,280.67 335.2,280.85 350.94,280.85 350.94,280.85 352.15,281.04 353.25,281.6 354.12,282.47 354.68,283.57 354.87,284.78 354.87,288.72 354.87,288.72 354.68,289.93 354.12,291.03 353.25,291.9 352.15,292.46 350.94,292.65 327.33,292.65" style="stroke: rgb(7, 27, 159); stroke-linecap: square; stroke-linejoin: round; fill: rgb(7, 27, 159);"/>
  <polyline points="395.26,238.32 380.03,252.03 380.03,225.45 380.03,225.45 382.13,224.98 384.1,224.13 385.89,222.95 387.44,221.45 388.69,219.7 389.6,217.75 390.14,215.67 390.3,213.53 390.06,211.39 389.44,209.33 388.46,207.42 387.14,205.72 385.54,204.28 383.71,203.16 381.7,202.39 379.59,202 377.44,202 375.32,202.38 373.31,203.15 371.47,204.27 369.87,205.7 368.55,207.4 367.56,209.31 366.94,211.37 366.7,213.5 366.85,215.65 367.39,217.73 368.29,219.68 369.54,221.43 369.54,300.52 380.03,300.52 380.03,269.05 395.02,269.05 395.02,269.05 395.86,269.18 396.61,269.58 397.19,270.2 397.55,270.97 405.7,300.52 421.82,300.52 420.38,295.27 415.13,295.27 407.66,268.18 407.66,268.18 406.93,266.18 405.88,264.32 404.55,262.66 402.96,261.24 401.17,260.09 399.21,259.25 397.14,258.73 395.02,258.56 388.45,258.56 402.27,246.12 402.27,246.12 403.09,245.62 404.03,245.44 419.37,245.44 419.37,240.2 404.03,234.96 404.03,234.96 402.11,235.1 400.24,235.51 398.45,236.2 396.77,237.14 395.26,238.32" style="stroke-linejoin: round; stroke: rgb(7, 27, 159); fill: rgb(7, 27, 159);"/>
</svg>